<?xml version="1.0" encoding="UTF-8"?>
<svg version="1.1" xmlns="http://www.w3.org/2000/svg" width="512" height="512">
<path d="M0 0 C17.93831697 13.85654425 27.46203706 31.45388483 33.125 53.125 C33.99382812 52.84785156 34.86265625 52.57070312 35.7578125 52.28515625 C36.91023438 51.92292969 38.06265625 51.56070313 39.25 51.1875 C40.38695312 50.82785156 41.52390625 50.46820313 42.6953125 50.09765625 C63.68512895 44.14496343 86.52988547 47.73479759 105.43359375 57.9921875 C126.04603098 69.66639457 139.6910204 87.66803357 146.4375 110.25 C150.57345324 126.58912241 149.26153823 144.22029728 144.125 160.125 C143.77904159 161.4551134 143.43886364 162.78694974 143.125 164.125 C143.82238281 164.22683594 144.51976562 164.32867187 145.23828125 164.43359375 C155.01072149 166.77421882 163.74655724 173.54990528 171.125 180.125 C171.88425781 180.79015625 172.64351563 181.4553125 173.42578125 182.140625 C188.18900569 195.90943536 197.51402234 216.04973318 198.51171875 236.1484375 C199.23667914 262.3967967 191.61945577 283.94626607 173.5 303.25 C165.6330449 310.85109794 151.45563374 322.125 140.125 322.125 C140.45113281 322.84042969 140.77726562 323.55585938 141.11328125 324.29296875 C149.82556928 344.15904146 151.86787659 367.50632863 144.125 388.125 C134.76644508 410.71088889 118.84375391 428.57478161 96.046875 438.0625 C77.6369355 444.75702345 57.87950722 445.71162956 39.0390625 440 C36.1532214 438.98120828 36.1532214 438.98120828 33.125 439.125 C32.39796875 440.57519531 32.39796875 440.57519531 31.65625 442.0546875 C27.53423232 450.12415796 23.23605131 457.3596105 17.125 464.125 C16.46113281 464.88167969 15.79726563 465.63835937 15.11328125 466.41796875 C1.35714061 481.19119928 -18.80492526 490.51428007 -38.8984375 491.51171875 C-65.1467967 492.23667914 -86.69626607 484.61945577 -106 466.5 C-114.43603878 457.76890104 -120.27696869 447.30452711 -124.875 436.125 C-125.47796967 434.72864917 -126.08196561 433.33274054 -126.6875 431.9375 C-127.079375 431.009375 -127.47125 430.08125 -127.875 429.125 C-128.45765625 429.50011719 -129.0403125 429.87523437 -129.640625 430.26171875 C-149.28518128 442.52412259 -171.65085586 446.69815439 -194.515625 442.0949707 C-215.87779135 436.87111778 -235.25096622 422.96684 -246.8215332 404.36425781 C-258.50073473 384.92258001 -262.54483957 362.47960264 -257.63769531 340.13330078 C-256.18378777 334.43813725 -254.24666436 328.98085438 -251.609375 323.7265625 C-250.7360642 322.11565255 -250.7360642 322.11565255 -250.875 320.125 C-251.69742188 319.7125 -252.51984375 319.3 -253.3671875 318.875 C-260.90441437 314.97583414 -267.50400378 310.80233666 -273.875 305.125 C-274.63425781 304.45984375 -275.39351563 303.7946875 -276.17578125 303.109375 C-290.93900569 289.34056464 -300.26402234 269.20026682 -301.26171875 249.1015625 C-301.98667914 222.8532033 -294.36945577 201.30373393 -276.25 182 C-271.30631713 177.18681808 -265.84430502 173.59777369 -259.9765625 170.03515625 C-257.48782726 168.50242132 -255.16978408 166.92804463 -252.875 165.125 C-253.22433594 164.11179688 -253.57367188 163.09859375 -253.93359375 162.0546875 C-254.39347229 160.70320771 -254.85309409 159.35164053 -255.3125 158 C-255.54259766 157.33484375 -255.77269531 156.6696875 -256.00976562 155.984375 C-262.67633033 136.27453154 -260.14769481 113.29012752 -251.125 94.8125 C-240.05459406 73.41606859 -223.14081485 58.93524153 -200.515625 50.9375 C-177.82329024 44.15804729 -154.66246793 47.4465062 -133.875 58.125 C-133.74544922 56.94357422 -133.74544922 56.94357422 -133.61328125 55.73828125 C-131.41560645 38.70126103 -124.17401536 23.96953686 -112.875 11.125 C-112.20855469 10.36316406 -111.54210937 9.60132812 -110.85546875 8.81640625 C-81.70438821 -22.38985251 -33.9061351 -23.55784914 0 0 Z M-91.875 141.125 C-92.143125 142.3109375 -92.41125 143.496875 -92.6875 144.71875 C-98.34460622 168.54544157 -109.7186155 188.85843393 -130.91455078 202.11962891 C-132.56196027 203.13137601 -134.21828216 204.12856826 -135.875 205.125 C-136.83921875 205.70507812 -137.8034375 206.28515625 -138.796875 206.8828125 C-139.48265625 207.29273438 -140.1684375 207.70265625 -140.875 208.125 C-140.35099609 209.75308594 -140.35099609 209.75308594 -139.81640625 211.4140625 C-139.35655585 212.85930661 -138.89693245 214.30462297 -138.4375 215.75 C-138.20740234 216.46285156 -137.97730469 217.17570312 -137.74023438 217.91015625 C-131.83564828 236.56522536 -133.04173189 258.64169302 -141.1875 276.4375 C-141.53425781 277.09363281 -141.88101563 277.74976563 -142.23828125 278.42578125 C-143.15557152 280.33162275 -143.15557152 280.33162275 -141.875 283.125 C-139.20208325 284.76460011 -139.20208325 284.76460011 -135.9375 286.3125 C-129.60010502 289.56090493 -124.21504362 293.38340955 -118.875 298.125 C-117.84632813 299.01251953 -117.84632813 299.01251953 -116.796875 299.91796875 C-105.47875503 310.36717794 -98.98454948 324.87204618 -93.875 339.125 C-92.96621094 338.60550781 -92.05742187 338.08601562 -91.12109375 337.55078125 C-71.06656766 326.3322002 -48.46769254 320.90439428 -25.60302734 326.60668945 C-23.6872732 327.15198487 -21.78620259 327.74813797 -19.88671875 328.34765625 C-16.21547555 329.41273621 -16.21547555 329.41273621 -12.875 328.125 C-11.45751106 325.81711359 -10.28032761 323.62055654 -9.125 321.1875 C-5.73630938 314.46665002 -1.93250731 308.74223144 3.125 303.125 C3.71539062 302.44179688 4.30578125 301.75859375 4.9140625 301.0546875 C13.89427585 291.31020068 26.63975414 284.28674862 39.125 280.125 C38.50625 278.3925 38.50625 278.3925 37.875 276.625 C37.2844401 274.79398173 36.70215017 272.96028923 36.125 271.125 C35.76535156 270.0421875 35.40570313 268.959375 35.03515625 267.84375 C30.17953751 251.39339753 30.23136787 233.53440221 35.25 217.13671875 C36.31099698 214.00751367 36.31099698 214.00751367 36.125 210.125 C34.58392578 209.39796875 34.58392578 209.39796875 33.01171875 208.65625 C11.2573885 198.2121706 -5.54743767 183.27072472 -13.875 160.125 C-15.38773756 155.17103494 -16.65901096 150.15878703 -17.875 145.125 C-18.81601562 145.40214844 -19.75703125 145.67929688 -20.7265625 145.96484375 C-21.97179687 146.32707031 -23.21703125 146.68929687 -24.5 147.0625 C-26.34464844 147.60197266 -26.34464844 147.60197266 -28.2265625 148.15234375 C-47.87779297 153.39126922 -69.73069461 151.15809575 -87.8359375 142.078125 C-89.80183444 140.98384819 -89.80183444 140.98384819 -91.875 141.125 Z " fill="#FF0000" transform="translate(307.875,20.875)"/>
<path d="M0 0 C2.54536515 1.97580042 4.98704118 4.02422672 7.40625 6.15234375 C8.54900391 7.15201172 8.54900391 7.15201172 9.71484375 8.171875 C19.20394593 17.03604497 25.50374636 28.23253098 30.40625 40.15234375 C31.00921967 41.54869458 31.61321561 42.94460321 32.21875 44.33984375 C32.8065625 45.73203125 32.8065625 45.73203125 33.40625 47.15234375 C33.98890625 46.77722656 34.5715625 46.40210938 35.171875 46.015625 C54.2427623 34.11131327 76.20366145 29.4803454 98.47265625 34.0546875 C101.18764474 34.70331249 103.81688452 35.46630453 106.4921875 36.27734375 C109.3780286 37.29613547 109.3780286 37.29613547 112.40625 37.15234375 C113.13328125 35.70214844 113.13328125 35.70214844 113.875 34.22265625 C117.99701768 26.15318579 122.29519869 18.91773325 128.40625 12.15234375 C129.07011719 11.39566406 129.73398437 10.63898438 130.41796875 9.859375 C144.18361416 -4.92406305 164.29793342 -14.12129047 184.41796875 -15.19921875 C209.81075233 -15.92063225 232.24819581 -7.67758224 250.90039062 9.66259766 C266.75909049 25.35160326 274.58751905 46.04779921 274.71875 68.02734375 C274.71875 91.96519288 266.19493785 111.79086584 249.78125 129.27734375 C232.65213492 145.82759472 211.07505004 152.74176058 187.65722656 152.63793945 C179.83381964 152.44372869 172.79485891 151.2933115 165.3203125 149.02734375 C162.4344714 148.00855203 162.4344714 148.00855203 159.40625 148.15234375 C158.67921875 149.60253906 158.67921875 149.60253906 157.9375 151.08203125 C153.81548232 159.15150171 149.51730131 166.38695425 143.40625 173.15234375 C142.74238281 173.90902344 142.07851563 174.66570312 141.39453125 175.4453125 C127.63839061 190.21854303 107.47632474 199.54162382 87.3828125 200.5390625 C61.1344533 201.26402289 39.58498393 193.64679952 20.28125 175.52734375 C11.84521122 166.79624479 6.00428131 156.33187086 1.40625 145.15234375 C0.80328033 143.75599292 0.19928439 142.36008429 -0.40625 140.96484375 C-0.798125 140.03671875 -1.19 139.10859375 -1.59375 138.15234375 C-2.17640625 138.52746094 -2.7590625 138.90257812 -3.359375 139.2890625 C-23.00393128 151.55146634 -45.36960586 155.72549814 -68.234375 151.12231445 C-89.59654135 145.89846153 -108.96971622 131.99418375 -120.5402832 113.39160156 C-132.42782093 93.60311878 -136.60097584 70.13793851 -131.03125 47.46484375 C-127.4429938 35.40326678 -121.41228162 24.97241946 -113.59375 15.15234375 C-113.05234375 14.4459375 -112.5109375 13.73953125 -111.953125 13.01171875 C-85.36679599 -19.76948304 -33.57162833 -23.91472922 0 0 Z " fill="#7F0080" transform="translate(181.59375,311.84765625)"/>
<path d="M0 0 C2.54536515 1.97580042 4.98704118 4.02422672 7.40625 6.15234375 C8.54900391 7.15201172 8.54900391 7.15201172 9.71484375 8.171875 C21.18768837 18.88914233 29.62144792 33.70935038 32.40625 49.15234375 C31.560625 49.81878906 30.715 50.48523438 29.84375 51.171875 C22.44998621 57.12356556 16.42681807 62.99125013 11.40625 71.15234375 C10.37371094 72.81523437 10.37371094 72.81523437 9.3203125 74.51171875 C-2.32754328 94.21706146 -3.12910653 114.87742569 -0.59375 137.15234375 C-20.08651909 151.15825932 -42.57581308 155.26590404 -66.19140625 151.52734375 C-86.56357898 147.45339769 -106.66315829 134.15431775 -118.23901367 117.01855469 C-131.45476762 96.59646932 -136.43547012 73.49730279 -131.51074219 49.41674805 C-128.35760636 36.58104492 -121.76751555 25.41859328 -113.59375 15.15234375 C-113.05234375 14.4459375 -112.5109375 13.73953125 -111.953125 13.01171875 C-85.36679599 -19.76948304 -33.57162833 -23.91472922 0 0 Z " fill="#000000" transform="translate(181.59375,311.84765625)"/>
<path d="M0 0 C17.46522732 13.49110374 30.20776128 32.93669841 33.125 55.125 C35.16914781 80.73064104 29.84053915 103.19017183 13.125 123.125 C4.29258793 133.3162447 -8.6460686 143.38218038 -21.875 147.125 C-24.515625 147.01171875 -24.515625 147.01171875 -26.875 146.125 C-28.32421875 144.26171875 -28.32421875 144.26171875 -29.5625 141.8125 C-40.19259644 122.87848598 -57.86648003 110.76480452 -78.4375 104.6875 C-93.97061038 100.52917633 -110.42538633 100.82775646 -125.875 105.125 C-135.27864087 84.49645976 -137.90246625 60.76837508 -129.875 39.125 C-126.14899736 29.93046181 -121.03715566 21.86466751 -114.875 14.125 C-114.33359375 13.41859375 -113.7921875 12.7121875 -113.234375 11.984375 C-101.45880202 -2.53502081 -83.7975686 -11.05295826 -65.875 -14.875 C-64.68970703 -15.16117188 -64.68970703 -15.16117188 -63.48046875 -15.453125 C-40.79722654 -19.12597381 -18.60902587 -12.85714515 0 0 Z " fill="#00FE00" transform="translate(472.875,195.875)"/>
<path d="M0 0 C16.43238572 12.99875288 29.04165153 32.50308615 31.67578125 53.52734375 C32.71392388 72.37583967 31.46276368 88.52957446 22.67578125 105.52734375 C21.50015625 105.25921875 20.32453125 104.99109375 19.11328125 104.71484375 C18.283125 104.53566406 17.45296875 104.35648437 16.59765625 104.171875 C14.53926339 103.71781775 12.48750576 103.23314511 10.44140625 102.7265625 C-12.68886368 97.39851997 -35.09164076 100.61900542 -55.33398438 113.20458984 C-65.19190861 119.75638493 -72.92659574 127.54512293 -79.32421875 137.52734375 C-80.1567233 138.7570719 -80.98988347 139.98635697 -81.82421875 141.21484375 C-82.31921875 141.97796875 -82.81421875 142.74109375 -83.32421875 143.52734375 C-95.49786755 139.7746998 -104.4864997 132.35219858 -113.32421875 123.52734375 C-113.99324219 122.86992187 -114.66226563 122.2125 -115.3515625 121.53515625 C-131.38474328 104.593065 -136.01202269 82.25523229 -135.62890625 59.7421875 C-134.83138312 37.90916797 -123.70971018 17.91625154 -108.140625 2.94140625 C-77.36915196 -23.43414207 -32.29388984 -24.51335905 0 0 Z " fill="#FEFEFE" transform="translate(142.32421875,197.47265625)"/>
<path d="M0 0 C16.05566512 13.46282479 27.74601275 32.04390939 30.515625 53.109375 C31.64415972 67.24575725 31.01854203 80.61870791 26.515625 94.109375 C26.185625 95.099375 25.855625 96.089375 25.515625 97.109375 C20.80111625 96.64565283 16.26565666 96.06742189 11.640625 95.046875 C-11.4098509 90.82953933 -31.98092984 96.77768361 -51.421875 109.109375 C-64.82639852 118.61486411 -72.71086521 130.9475287 -80.484375 145.109375 C-94.01035024 140.29149444 -104.42568597 133.15342256 -114.484375 123.109375 C-115.15339844 122.45195312 -115.82242187 121.79453125 -116.51171875 121.1171875 C-132.3195253 104.41324679 -137.43366153 81.60894801 -136.8515625 59.265625 C-135.73595975 38.25115044 -125.46069974 17.82484545 -109.95263672 3.71582031 C-78.05452281 -23.75614433 -33.56604805 -25.92826466 0 0 Z " fill="#FEFE00" transform="translate(425.484375,86.890625)"/>
<path d="M0 0 C16.49765402 13.06293977 29.16728962 32.45378092 31.81640625 53.59765625 C33.33024818 81.08293879 27.85463467 103.09200808 9.58203125 124.17578125 C-4.5537247 139.23544282 -24.54493438 148.95871188 -45.20703125 149.984375 C-57.45502785 150.31580452 -68.52825209 149.48797806 -80.18359375 145.59765625 C-81.17359375 145.26765625 -82.16359375 144.93765625 -83.18359375 144.59765625 C-82.57662635 139.94816813 -81.69750757 135.4706148 -80.62109375 130.91015625 C-76.02755495 108.93475584 -80.14544236 87.56919392 -91.91259766 68.53613281 C-101.55230979 53.8339979 -114.95365543 44.86598075 -130.18359375 36.59765625 C-126.93693225 26.22047652 -121.32610228 17.71714377 -114.18359375 9.59765625 C-113.51714844 8.83582031 -112.85070312 8.07398438 -112.1640625 7.2890625 C-82.89819592 -24.04007483 -33.37486657 -25.18471527 0 0 Z " fill="#0000FE" transform="translate(424.18359375,314.40234375)"/>
<path d="M0 0 C0.00386719 1.90845703 0.00386719 1.90845703 0.0078125 3.85546875 C0.40283519 28.21598027 7.38686715 50.75429116 24.49853516 68.55273438 C29.26457021 73.14672719 34.75541992 76.95591455 40.34375 80.4765625 C42 82 42 82 42.34765625 83.953125 C40.20027536 101.24983687 32.54567053 117.04367423 21 130 C20.33484375 130.75925781 19.6696875 131.51851562 18.984375 132.30078125 C14.68948487 136.90585789 10.07129939 140.52584526 4.8125 143.9375 C4.23032715 144.31527588 3.6481543 144.69305176 3.04833984 145.08227539 C-0.51708202 147.30521196 -3.96859383 148.83156513 -8 150 C-8.69222656 148.69289062 -8.69222656 148.69289062 -9.3984375 147.359375 C-20.27583978 127.29175875 -35.99375354 112.89599425 -57.88671875 105.6484375 C-75.97275499 100.3052727 -93.01927691 100.84652916 -111 106 C-111.67224609 106.19110352 -112.34449219 106.38220703 -113.03710938 106.57910156 C-114.69225829 107.04974822 -116.3462557 107.52444141 -118 108 C-127.05985069 90.20222224 -128.05717213 67.77783997 -122.390625 48.703125 C-113.51934447 25.07960269 -98.32691856 7.38483727 -75.625 -3.8125 C-50.54823611 -14.24907225 -23.9325812 -12.29413418 0 0 Z " fill="#FF7F00" transform="translate(174,79)"/>
</svg>
